<?xml version="1.0" encoding="UTF-8" standalone="no"?>
<!-- Created with Inkscape (http://www.inkscape.org/) -->

<svg
   version="1.1"
   id="svg162"
   width="300"
   height="293.49872"
   viewBox="0 0 300 293.49872"
   sodipodi:docname="favicon.svg"
   xml:space="preserve"
   inkscape:version="1.2.2 (b0a8486, 2022-12-01)"
   xmlns:inkscape="http://www.inkscape.org/namespaces/inkscape"
   xmlns:sodipodi="http://sodipodi.sourceforge.net/DTD/sodipodi-0.dtd"
   xmlns="http://www.w3.org/2000/svg"
   xmlns:svg="http://www.w3.org/2000/svg"><defs
     id="defs166" /><sodipodi:namedview
     id="namedview164"
     pagecolor="#505050"
     bordercolor="#ffffff"
     borderopacity="1"
     inkscape:showpageshadow="0"
     inkscape:pageopacity="0"
     inkscape:pagecheckerboard="1"
     inkscape:deskcolor="#505050"
     showgrid="false"
     inkscape:zoom="1.1767078"
     inkscape:cx="182.71317"
     inkscape:cy="235.40254"
     inkscape:window-width="1792"
     inkscape:window-height="1006"
     inkscape:window-x="0"
     inkscape:window-y="25"
     inkscape:window-maximized="1"
     inkscape:current-layer="layer1" /><g
     inkscape:groupmode="layer"
     id="layer1"
     inkscape:label="Image 1"
     transform="matrix(0.77323855,0,0,0.77323855,-245.89814,-249.14878)"><ellipse
       style="fill:#574d44;fill-opacity:1;stroke:#574d44;stroke-width:0.755758;stroke-dasharray:none;stroke-opacity:1"
       id="path883"
       cx="512"
       cy="512"
       rx="165.65045"
       ry="165.65047" /><circle
       style="fill:#f9f3e8;fill-opacity:1;stroke:#fffffa;stroke-width:0.524583;stroke-dasharray:none;stroke-opacity:1"
       id="path883-1"
       cx="512"
       cy="512"
       r="114.98052" /><g
       id="g2643"
       inkscape:label="elt"
       style="fill:none;stroke:#514d44;stroke-opacity:1"
       transform="translate(-0.21129081,0.62902817)"><path
         id="path2324"
         style="display:inline;fill:#4f9785;fill-opacity:1;stroke:none;stroke-width:1.00633;stroke-opacity:1"
         inkscape:transform-center-x="-0.6628325"
         inkscape:transform-center-y="-21.599621"
         d="m 600.38299,585.02376 c 0,0 -29.57934,42.00439 -87.29417,41.89689 -58.00825,-0.10805 -88.67739,-40.47415 -88.67739,-40.47415 l 88.21612,-86.65446 z"
         sodipodi:nodetypes="csccc" /><path
         id="path2324-8"
         style="display:inline;fill:#64bd9f;fill-opacity:1;stroke:none;stroke-width:0.782828;stroke-opacity:1"
         inkscape:transform-center-x="-0.52428949"
         inkscape:transform-center-y="-16.524663"
         d="m 582.43296,569.25588 c 0,0 -23.39666,32.13521 -69.0479,32.05296 -45.88334,-0.0827 -70.142,-30.9645 -70.142,-30.9645 l 69.77714,-66.29447 z"
         sodipodi:nodetypes="csccc" /><path
         id="path2324-8-3"
         style="display:inline;fill:#9acebb;fill-opacity:1;stroke:none;stroke-width:0.57467;stroke-opacity:1"
         inkscape:transform-center-x="-0.39014921"
         inkscape:transform-center-y="-11.966734"
         d="m 564.42509,550.16987 c 0,0 -17.41058,23.2715 -51.38187,23.21194 -34.144,-0.0599 -52.19604,-22.42369 -52.19604,-22.42369 l 51.92453,-48.00877 z"
         sodipodi:nodetypes="csccc" /><path
         id="path883-1-1-4"
         style="fill:#efbc67;fill-opacity:1;stroke:#efbc67;stroke-width:1.49889;stroke-opacity:1"
         d="m 525.2168,512.25781 -6.75391,7.05469 0.0449,0.0527 h -14.25976 l -0.002,0.26954 -5.84179,-5.6836 -73.32098,71.86004 c 0,0 4.46828,4.92506 6.85953,7.21407 2.39125,2.289 7.48798,6.51997 7.48798,6.51997 l 51.9344,-62.26009 c 3.50987,3.50683 7.88937,6.14147 12.78711,7.55664 l -0.19593,80.41366 c 0,0 5.16017,0.42069 7.74609,0.43359 2.66222,0.0133 7.97852,-0.0955 7.97852,-0.0955 l -0.10875,-80.44513 c 5.47733,-1.3432 10.35496,-4.19901 14.17578,-8.09961 l 52.61462,61.02683 7.06624,-6.48057 6.49005,-6.72747 z m -5.64453,8.3418 3.02734,3.51172 c -0.98241,0.25704 -1.9957,0.47409 -3.02734,0.6582 z m -15.33399,1.53711 -0.008,1.9668 c -0.426,-0.16044 -0.84252,-0.32565 -1.24219,-0.4961 z"
         sodipodi:nodetypes="ccccccczccccsccccccccccccccc" /></g><path
       id="path883-1-5"
       style="display:inline;fill:#968978;fill-opacity:1;stroke:#968978;stroke-width:0.722255;stroke-dasharray:none;stroke-opacity:1"
       d="M 512,353.69336 A 158.30705,158.30705 0 0 0 353.69336,512 158.30705,158.30705 0 0 0 512,670.30664 158.30705,158.30705 0 0 0 670.30664,512 158.30705,158.30705 0 0 0 512,353.69336 Z m 0,3.71289 A 154.59335,154.59335 0 0 1 666.59375,512 154.59335,154.59335 0 0 1 512,666.59375 154.59335,154.59335 0 0 1 357.40625,512 154.59335,154.59335 0 0 1 512,357.40625 Z" /><g
       id="g2335"
       inkscape:label="handles"
       style="fill:#574d44;fill-opacity:1;stroke:#574d44;stroke-opacity:1"
       transform="translate(0,3.203035)"><path
         id="path1719-3"
         style="fill:#574d44;fill-opacity:1;stroke:#574d44;stroke-width:0.755906;stroke-dasharray:none;stroke-opacity:1"
         d="m 327.19437,522.68947 c 6.54643,0.18512 15.84148,-1.00896 26.46875,-5.25782 21.43021,8.69615 61.97431,4.20217 124.37724,-2.43767 2.16433,-0.44082 3.64691,-1.56639 3.56807,-2.94905 -0.0788,-1.38266 -0.35774,-2.27165 -3.7925,-2.98629 -64.8002,-7.17315 -102.64452,-11.18836 -124.07474,-2.49222 -10.62727,-4.24886 -19.92232,-5.44098 -26.46875,-5.25586 -6.72473,0.0875 -8.83616,6.41799 -8.88324,10.84274 -0.0471,4.42476 3.02683,10.58944 8.80517,10.53617 z"
         sodipodi:nodetypes="ccczccczc" /><path
         id="path1719-3-7"
         style="fill:#574d44;fill-opacity:1;stroke:#574d44;stroke-width:0.755906;stroke-dasharray:none;stroke-opacity:1"
         d="m 696.80563,522.68947 c -6.54643,0.18512 -15.84148,-1.00896 -26.46875,-5.25782 -21.43021,8.69615 -61.97431,4.20217 -124.37724,-2.43767 -2.16433,-0.44082 -3.64691,-1.56639 -3.56807,-2.94905 0.0788,-1.38266 0.35774,-2.27165 3.7925,-2.98629 64.8002,-7.17315 102.64452,-11.18836 124.07474,-2.49222 10.62727,-4.24886 19.92232,-5.44098 26.46875,-5.25586 6.72473,0.0875 8.83616,6.41799 8.88324,10.84274 0.0471,4.42476 -3.02683,10.58944 -8.80517,10.53617 z"
         sodipodi:nodetypes="ccczccczc" /><path
         id="path1719-3-6"
         style="fill:#574d44;fill-opacity:1;stroke:#574d44;stroke-width:0.755906;stroke-dasharray:none;stroke-opacity:1"
         d="m 368.94272,384.55619 c 4.49813,4.75993 11.91506,10.48818 22.43407,14.9984 9.00434,21.30255 40.85108,46.79383 89.67169,86.22429 1.84212,1.21871 3.68636,1.47115 4.6083,0.43772 0.92197,-1.03341 1.35334,-1.85926 -0.57008,-4.79333 -40.74848,-50.89285 -64.66927,-80.492 -85.97182,-89.49636 -4.51022,-10.51901 -10.23986,-17.93456 -14.99978,-22.43268 -4.81698,-4.69323 -10.78632,-1.70991 -13.94838,1.38557 -3.16208,3.09547 -5.34757,9.62816 -1.224,13.67639 z"
         sodipodi:nodetypes="ccczccczc" /><path
         id="path1719-3-7-1"
         style="fill:#574d44;fill-opacity:1;stroke:#574d44;stroke-width:0.755906;stroke-dasharray:none;stroke-opacity:1"
         d="m 601.7631,584.9043 c -4.15196,5.10044 -9.48441,10.88602 -14.44586,15.20311 14.96178,16.54916 26.76541,26.62821 37.98159,31.36915 4.51021,10.519 10.23813,17.93548 14.99805,22.4336 4.04823,4.12356 10.58225,1.93942 13.67773,-1.22266 3.09548,-3.16206 6.07799,-9.13225 1.38477,-13.94922 -4.49812,-4.75992 -11.9146,-10.48979 -22.4336,-15 -4.83764,-11.44492 -14.32754,-23.67405 -31.16268,-38.83398 z"
         sodipodi:nodetypes="ccccsccc" /><path
         id="path1719-3-6-4"
         style="fill:#574d44;fill-opacity:1;stroke:#574d44;stroke-width:0.755906;stroke-dasharray:none;stroke-opacity:1"
         d="m 655.04217,384.61665 c -4.49812,4.75992 -11.91506,10.48817 -22.43407,14.99839 -9.00434,21.30255 -40.85107,46.79384 -89.67168,86.22429 -1.84212,1.21871 -3.68636,1.47115 -4.6083,0.43772 -0.92197,-1.03341 -1.35334,-1.85926 0.57007,-4.79333 40.74848,-50.89284 64.66927,-80.492 85.97183,-89.49636 4.51021,-10.51901 10.23985,-17.93456 14.99977,-22.43268 4.81698,-4.69323 10.78632,-1.70991 13.94838,1.38557 3.16208,3.09548 5.34757,9.62816 1.224,13.6764 z"
         sodipodi:nodetypes="ccczccczc" /><path
         id="path1719-3-7-1-5"
         style="fill:#574d44;fill-opacity:1;stroke:#574d44;stroke-width:0.755906;stroke-dasharray:none;stroke-opacity:1"
         d="m 423.51926,586.5678 c -17.22632,15.4447 -27.55801,27.63229 -32.46067,39.23103 -10.51901,4.51021 -17.93547,10.24008 -22.43359,15 -4.69323,4.81697 -1.70876,10.78716 1.38672,13.94922 3.09547,3.16207 9.62754,5.34622 13.67578,1.22265 4.75992,-4.49812 10.48783,-11.91459 14.99805,-22.43359 11.45581,-4.84224 24.48347,-14.85484 39.87839,-31.99618 -5.00362,-4.14776 -10.81231,-10.04088 -15.04468,-14.97313 z"
         sodipodi:nodetypes="cccscccc" /><path
         id="path1719"
         style="fill:#574d44;fill-opacity:1;stroke:#574d44;stroke-width:0.755906;stroke-dasharray:none;stroke-opacity:1"
         d="m 501.31053,328.19527 c -0.18512,6.54643 1.00896,15.84148 5.25782,26.46875 -8.69615,21.43021 -3.75883,57.84958 1.65039,118.84961 0.24679,1.76024 2.50064,3.06438 3.73633,3.0957 1.23569,0.0313 3.33084,-0.61895 3.82812,-3.01763 5.40921,-61.00003 10.34653,-97.41939 1.65039,-118.84961 4.24886,-10.62727 5.44098,-19.92232 5.25586,-26.46875 -0.0875,-6.72473 -6.41799,-8.83616 -10.84274,-8.88324 -4.42476,-0.0471 -10.58944,3.02683 -10.53617,8.80517 z"
         sodipodi:nodetypes="ccczccczc" /><path
         id="path1719-4"
         style="fill:#574d44;fill-opacity:1;stroke:#574d44;stroke-width:0.755906;stroke-dasharray:none;stroke-opacity:1"
         d="m 503.84569,653.79562 c 0.69828,3.30944 1.59339,6.35187 2.72266,9.13477 -4.24886,10.62726 -5.44293,19.92233 -5.25781,26.46875 -0.0533,5.77833 6.1104,8.85179 10.53515,8.80469 4.42475,-0.0471 10.75625,-2.15809 10.84375,-8.88281 0.18512,-6.54643 -1.007,-15.8415 -5.25586,-26.46876 1.12051,-2.7613 2.00912,-5.77709 2.70508,-9.05664 z" /></g><circle
       style="fill:#574d44;fill-opacity:1;stroke:#574d44;stroke-width:1.1;stroke-dasharray:none;stroke-opacity:1"
       id="path883-1-1"
       cx="512"
       cy="512"
       r="21.890373" /></g></svg>
